<?xml version="1.0" encoding="utf-8"?>
<!-- Generator: Adobe Illustrator 15.0.0, SVG Export Plug-In . SVG Version: 6.00 Build 0)  -->
<!DOCTYPE svg PUBLIC "-//W3C//DTD SVG 1.1//EN" "http://www.w3.org/Graphics/SVG/1.1/DTD/svg11.dtd">
<svg version="1.1" id="Layer_1" xmlns="http://www.w3.org/2000/svg" xmlns:xlink="http://www.w3.org/1999/xlink" x="0px" y="0px"
	 width="502.064px" height="173.66px" viewBox="0 0 502.064 173.66" enable-background="new 0 0 502.064 173.66"
	 xml:space="preserve">
<g>
	<g>
		<path fill="#FFFFFF" d="M76.146,171.309c-49.254,5.029-70.614-34.172-70.614-77.899c0-54.531,36.188-90.717,63.076-91.471
			c34.931-1.006,39.705,28.898,35.182,47.243c-2.765,11.059-16.837,15.581-26.889,9.55c0,0,1.005-2.261,1.758-3.518
			c5.027-16.336,5.781-46.49-14.323-45.988C45.237,9.979,31.667,39.381,31.667,87.127c0,35.434,13.57,78.656,47.496,75.139
			c29.652-3.017,48.249-37.695,50.51-63.076c0.251-2.262,6.534-6.785,6.283-1.256C134.699,130.854,109.568,167.793,76.146,171.309z"
			/>
		<path fill="#FFFFFF" d="M225.659,95.169c-3.015,32.664-11.559,57.8-27.39,59.056c-9.8,0.754-18.095-8.795-21.612-24.629
			c-4.021,13.822-10.555,22.619-19.601,24.373c-13.821,2.768-33.926-8.037-32.668-38.695c1.508-37.443,37.945-54.531,57.294-37.443
			v0.251c6.786-8.795,16.335-6.031,19.35-3.015c-0.251,1.257-1.759,17.842-1.759,34.678c0,22.869,0.754,34.429,5.781,34.429
			c6.784,0,12.313-25.885,14.322-47.998C219.628,93.914,226.414,89.389,225.659,95.169z M175.149,98.438
			c0.504-5.778,1.508-10.306,3.016-14.075c-13.318-6.534-25.632-0.504-28.899,23.372c-3.268,24.877,3.268,37.693,10.806,36.438
			c7.79-1.26,12.565-19.855,14.574-44.982C174.646,98.938,174.898,98.938,175.149,98.438z"/>
		<path fill="#FFFFFF" d="M311.594,95.42c-3.269,32.415-11.813,57.549-27.392,58.805c-10.05,0.754-19.602-6.535-22.87-26.888
			c-4.775,15.829-11.808,26.134-21.61,26.888c-12.815,1.002-25.129-11.562-23.873-47.996c0.251-13.319,0.502-23.373,0.502-31.917
			c-5.025-1.508-8.794-3.519-10.303-6.031c-3.769-6.283,1.257-10.052,1.257-9.55c0,1.005,3.268,2.262,8.796,3.017
			c-0.251-12.815-1.257-19.099-2.012-25.633c-0.251-1.508-0.754-3.769-0.754-3.769c23.119-8.042,31.16-0.252,29.904,30.91
			c5.78,0,11.558,0,17.59-0.503c-0.251-14.071-1.255-21.359-2.013-28.145c-0.252-1.257-0.997-3.769-0.997-3.769
			c22.611-7.79,30.402-0.753,30.152,28.146c3.519-0.754,7.034-1.759,10.299-3.016c0.755,0,1.766-0.502,1.766-0.502
			c4.518,9.801,4.268,23.622-13.572,24.878c-4.775,52.268-1.764,63.831,4.27,63.831c6.785,0,12.564-25.885,14.322-47.998
			C305.312,93.914,311.844,89.389,311.594,95.42z M260.58,97.43c0-6.283,0.251-12.063,0.251-17.088
			c-6.282-0.251-12.564-0.502-18.596-1.256c-4.773,51.014-2.261,65.086,4.02,65.086C252.79,144.172,258.569,119.292,260.58,97.43z"
			/>
		<path fill="#FFFFFF" d="M352.798,95.169c-3.013,32.664-11.557,58.302-27.14,59.056c-13.32,0.502-23.371-16.084-23.871-42.218
			c-1.006-35.434,16.333-41.466,26.634-31.162c-0.25,1.256-2.007,9.045-2.007,28.898c0,22.868,1.007,34.429,5.776,34.429
			c6.784,0,12.568-25.885,14.322-47.998C346.767,93.914,353.3,89.389,352.798,95.169z M320.383,63.505
			c-7.036,0-13.318-7.789-13.569-15.831c-0.508-11.309,7.789-16.837,18.096-15.078c10.551,1.758,14.57,8.794,11.81,17.841
			C334.453,58.229,327.421,63.757,320.383,63.505z"/>
		<path fill="#FFFFFF" d="M403.306,114.77c12.813,1.004,19.343-6.283,22.105-15.076c0.758-2.264,8.294-4.774,6.29,0.504
			c-3.521,10.551-13.573,22.865-31.164,21.607c-8.795,20.106-23.372,32.42-33.422,32.42c-14.829,0-23.622-16.084-24.123-42.218
			c-1.006-35.938,15.076-48.501,26.384-36.942c-0.25,1.257-1.757,17.843-1.757,34.678c0,22.868,1.006,34.429,6.782,34.429
			c5.028,0,13.571-9.298,19.354-23.623c-22.114-7.791-20.607-48.5-5.275-54.029c17.588-6.534,24.372,15.078,16.583,42.72
			L403.306,114.77z M396.269,113.01l1.255-4.523c2.765-11.307-0.249-20.104-7.037-17.842
			C383.198,92.906,385.965,107.982,396.269,113.01z"/>
		<path fill="#FFFFFF" d="M440.993,131.104c3.516,9.803,10.048,14.828,20.104,13.068c11.558-2.011,26.885-19.35,29.146-44.982
			c0.257-2.262,6.54-6.785,6.281-1.256c-0.998,32.416-19.852,52.269-38.694,56.035c-21.611,4.525-45.232-9.546-44.231-38.693
			c1.006-29.401,23.123-42.721,39.96-42.721c14.569,0,25.883,11.308,21.857,25.383C470.896,113.01,453.052,124.568,440.993,131.104z
			 M439.229,125.074c5.531-4.273,9.802-10.307,12.317-18.848c4.017-16.336,2.013-28.146-1.761-28.146
			c-5.025,0-10.808,12.565-11.561,31.159C438.225,115.271,438.476,120.297,439.229,125.074z"/>
	</g>
</g>
</svg>
